<?xml version="1.0" encoding="utf-8"?>
<!-- Generator: Adobe Illustrator 24.2.0, SVG Export Plug-In . SVG Version: 6.00 Build 0)  -->
<svg version="1.1" id="Layer_1" xmlns="http://www.w3.org/2000/svg" xmlns:xlink="http://www.w3.org/1999/xlink" x="0px" y="0px"
	 viewBox="0 0 18 18" style="enable-background:new 0 0 18 18;" xml:space="preserve">
<style type="text/css">
	.st0{fill:none;}
	.st1{fill:#FF9466;}
</style>
<path class="st0" d="M0,0h18v18H0V0z"/>
<path class="st1" d="M13.5,12.8h-9v-1.5h9V12.8z M13.5,9.8h-9V8.2h9V9.8z M13.5,6.8h-9V5.2h9V6.8z M2.2,16.5l1.1-1.1l1.1,1.1
	l1.1-1.1l1.1,1.1l1.1-1.1L9,16.5l1.1-1.1l1.1,1.1l1.1-1.1l1.1,1.1l1.1-1.1l1.1,1.1v-15l-1.1,1.1l-1.1-1.1l-1.1,1.1l-1.1-1.1
	l-1.1,1.1L9,1.5L7.9,2.6L6.8,1.5L5.6,2.6L4.5,1.5L3.4,2.6L2.2,1.5V16.5z"/>
</svg>
