<?xml version="1.0" encoding="utf-8"?>
<!-- Generator: Adobe Illustrator 24.2.0, SVG Export Plug-In . SVG Version: 6.00 Build 0)  -->
<svg version="1.1" id="Layer_1" xmlns="http://www.w3.org/2000/svg" xmlns:xlink="http://www.w3.org/1999/xlink" x="0px" y="0px"
	 viewBox="0 0 18 18" style="enable-background:new 0 0 18 18;" xml:space="preserve">
<style type="text/css">
	.st0{fill:none;}
	.st1{fill:#FF9466;}
</style>
<path class="st0" d="M0,0h18v18H0V0z"/>
<g>
	<path class="st1" d="M14.6,2.6l-1.1-1.1l-1.1,1.1l-1.1-1.1l-1.1,1.1L9,1.5L7.9,2.6L6.8,1.5L5.6,2.6L4.5,1.5V12H2.2v2.2
		c0,1.2,1,2.2,2.2,2.2h9c1.2,0,2.2-1,2.2-2.2V1.5L14.6,2.6z M14.2,14.2c0,0.4-0.3,0.8-0.8,0.8s-0.8-0.3-0.8-0.8V12H6V3.8h8.2V14.2z"
		/>
	<rect x="6.8" y="5.2" class="st1" width="4.5" height="1.5"/>
	<rect x="12" y="5.2" class="st1" width="1.5" height="1.5"/>
	<rect x="6.8" y="7.5" class="st1" width="4.5" height="1.5"/>
	<rect x="12" y="7.5" class="st1" width="1.5" height="1.5"/>
</g>
</svg>
